PathFileType	4	(X/Y/Z)	3_1_30_p1_0-293_filt_butterworth.trc
DataRate	CameraRate	NumFrames	NumMarkers	Units	OrigDataRate	OrigDataStartFrame	OrigNumFrames
60.0	60.0	6	27	m	60.0	109	293
Frame#	Time	RHip			RKnee			RAnkle			RBigToe			RSmallToe			RHeel			LHip			LKnee			LAnkle			LBigToe			LSmallToe			LHeel			Neck			Head			Nose			RShoulder			RElbow			RWrist			RThumb			RIndex			RPinky			LShoulder			LElbow			LWrist			LThumb			LIndex			LPinky			
		X1	Y1	Z1	X2	Y2	Z2	X3	Y3	Z3	X4	Y4	Z4	X5	Y5	Z5	X6	Y6	Z6	X7	Y7	Z7	X8	Y8	Z8	X9	Y9	Z9	X10	Y10	Z10	X11	Y11	Z11	X12	Y12	Z12	X13	Y13	Z13	X14	Y14	Z14	X15	Y15	Z15	X16	Y16	Z16	X17	Y17	Z17	X18	Y18	Z18	X19	Y19	Z19	X20	Y20	Z20	X21	Y21	Z21	X22	Y22	Z22	X23	Y23	Z23	X24	Y24	Z24	X25	Y25	Z25	X26	Y26	Z26	X27	Y27	Z27	
109	1.8166666666666669	0.21526206426298508	0.8917711046475454	0.4078727977708773	0.19217176454352938	0.49968383772486247	0.4691253413957816	0.1538011803350276	0.05127595652738318	0.513652607315728	0.17651105040984172	0.027586163721847502	0.28017825243889377	0.2366550916486861	-0.00518283246817712	0.3721599337434718	0.13998591468991914	0.014868431504773892	0.5086313223838572	-0.007473033967572567	0.9005100257225709	0.3733263675067041	-0.014873965806071835	0.5184715381632304	0.3955056752622513	-0.025749679676771352	0.09026135340200601	0.45304022583756004	-0.006241718076935965	0.020272209902923007	0.2622357941869376	-0.05589391762589331	0.051093425375961066	0.2841515478287503	-0.010669296509981097	0.0014494545751919316	0.5182560053999422	0.09866275814437164	1.4724495509404818	0.38769405016242425	0.1353710015083217	1.7323833502899384	0.27820130485284195	0.13449018918348382	1.5703429224183598	0.2538115286768592	0.254367592537894	1.3902093898476395	0.42870212610213126	0.3563996168239194	1.1715777239789336	0.2968930403801715	0.24446970329311352	1.3250620683978211	0.2126699094111079	0.18032783450839057	1.429726712698442	0.18894642799526193	0.18526213880034895	1.4383835817709132	0.16264336003875063	0.19860152840578832	1.374104554588263	0.1529264097182514	-0.048106692806210924	1.400816190654945	0.35591289458807907	-0.12098107880511044	1.156066918838904	0.31108745153347506	-0.03671111766998286	1.0251054951095346	0.07924267840132343	0.036878751313566785	0.9730816150714808	0.0036556789941788416	0.02882059204855088	0.9608036653488238	-0.016041028694405213	-0.029106890986424015	0.9292225550562424	0.03523697863013572	
110	1.8333333333333333	0.21526608794356178	0.8920264978182203	0.4069957859429762	0.19229622661747184	0.499881454056195	0.4696756114174616	0.15364477282040315	0.05196323099914823	0.5131682091435685	0.17670016257681237	0.02841091776236919	0.28013252933457944	0.23646358642570892	-0.004498789039270988	0.3709335008726912	0.1399035143981999	0.015605965197531012	0.5077930139179966	-0.00701608760664266	0.9006719391310422	0.3735866642953676	-0.014818109616566632	0.5180306647056816	0.3953904361922217	-0.02516472620226765	0.09166500124986166	0.45206459772854013	-0.0062035889876621685	0.02030412566801753	0.2622526150152418	-0.05580248097276301	0.051189897502487994	0.28418517168505164	-0.010633318641621101	0.001785386538131646	0.5187274829562727	0.10002106588704412	1.4730828326691998	0.38562499293239155	0.1375513610144668	1.7332041391966206	0.2779918185163793	0.13690716016789636	1.5721961240876023	0.2554565062039822	0.25490578969853395	1.3909457425976757	0.4227091342257652	0.35284892274510715	1.1724080112138893	0.2946873633972079	0.23942952297586206	1.3291402047487186	0.21354876759415783	0.17796719344399411	1.4317047758779984	0.19765742692428964	0.18451020473238972	1.4432304594910927	0.1657622502294938	0.19774425664276474	1.3869211911656034	0.15644001728565773	-0.04943502097270739	1.4010530993182346	0.3548456155439492	-0.1226093249787397	1.1559244914607465	0.31111932578774065	-0.040105323610918994	1.0199540490485326	0.08660166958786514	0.03431953953337956	0.9663097283505538	0.014136499735378814	0.026184071869058377	0.9551268552703276	-0.010353002474122023	-0.030637742967231735	0.9230521451217177	0.03732586867561753	
111	1.85	0.21539254792029172	0.8921350510671571	0.405900953181771	0.19241450958471717	0.49983936704758236	0.46988515350369103	0.15347326717422533	0.0527148323008373	0.5126529387858992	0.1769330371926334	0.029431806266845616	0.28002828656671136	0.23605037479329305	-0.003288567395906603	0.3688198166420632	0.1397754561322075	0.01667592041104491	0.5066664904977516	-0.0066045838706276115	0.9007598715668901	0.37389381530737553	-0.0147475551948123	0.517435584461694	0.3953492983711129	-0.024402793903700277	0.09318801813909927	0.4507841852189563	-0.006169173811849145	0.020330618559133453	0.2622651927521849	-0.055720390472692546	0.05127697276354464	0.28422113672281124	-0.010520533626627162	0.0024378084622088307	0.5187125756023442	0.10127446098390835	1.4738745053452234	0.38399718573378927	0.1391851863764053	1.7338630829111943	0.2783301072251552	0.1389060212775499	1.574454318767331	0.2559747921510617	0.25573215246188313	1.3922201883330447	0.4177186971072871	0.3495649362161384	1.1731949481806048	0.29262010594349996	0.23525199753883946	1.3332254939323729	0.21279661916478232	0.17491767535143898	1.4346605005767936	0.20781175293921061	0.18420753535800702	1.449811709674404	0.16940821035912243	0.19689911706978813	1.4000314699306171	0.16048027422605937	-0.050545988982556564	1.4011183542979557	0.3548557494626894	-0.12513270104391164	1.1562180028386626	0.30918121610308846	-0.04541150099603433	1.0141629058224189	0.09539439815752801	0.030357385157355136	0.9579111845176841	0.026718645735202263	0.021378557309261095	0.9475616441709146	-0.002748975496522363	-0.032183884698728876	0.9160223144814537	0.03870461981476527	
112	1.8666666666666667	0.21560899698123281	0.8920695657720032	0.40465210781424193	0.19249251826211966	0.49974384111713194	0.4695710022680802	0.15328590051899416	0.053541066140208295	0.5120383602747721	0.17717833755756862	0.03049824634696238	0.2798905700005598	0.2355566030721447	-0.0019071142706088683	0.3664345518083476	0.139550411122384	0.01796778268141164	0.5053296104065347	-0.006301987787799	0.9008210815603483	0.374165139132564	-0.014676484773367247	0.5168049186739938	0.3953539477722285	-0.02359383691366356	0.09478338397417933	0.4492495950450533	-0.006145175363938627	0.020348539271888354	0.2622775633081952	-0.055657155879201836	0.05135888355805623	0.2842702646297541	-0.01029853345239397	0.003569722938983778	0.5181613215521582	0.10219020675124925	1.4748882933346805	0.3830663882843748	0.14078271072663667	1.7342822186115008	0.278796046024549	0.14054876705131525	1.5767472882999505	0.2559573889691782	0.25682656443378193	1.3937775641974965	0.4139811545201478	0.34662910474788766	1.1741811195206868	0.29020340692205093	0.23215681421456238	1.3372119980864656	0.21146149794605645	0.17147347742712016	1.4389954126562734	0.21842495289288533	0.18430710689333446	1.4579389226376571	0.17378098811943427	0.19620401853124275	1.4118876992955902	0.1647703292741606	-0.05119941198454768	1.401076095495597	0.35535758825776875	-0.12852841839013665	1.1569856422584615	0.3046565550945233	-0.05220714548089675	1.0077333887900957	0.10502265521591203	0.024954425837186073	0.9484906624098784	0.04006727056685791	0.014119959190817368	0.937978535736879	0.006875901052264255	-0.034531399763416556	0.9076977532744497	0.04154742208820266	
113	1.8833333333333333	0.21585709695397917	0.8918835659226633	0.4034408845692734	0.19250937912891078	0.4997101821990897	0.46872094966968736	0.1530892255844675	0.05438180208552672	0.5111650050587971	0.17740305886586866	0.03146243768546041	0.2797510397744805	0.23514659381101602	-0.000766597214144633	0.36448430013300315	0.13921921467118345	0.019270146403175627	0.5038711367384722	-0.006153396672687895	0.900901769125873	0.3743766081799253	-0.014612203010656077	0.5162117551241521	0.3953774985397971	-0.022869224469124993	0.09638428971639022	0.4476265144127772	-0.0061428580099484025	0.020356193124813165	0.26230176253721915	-0.05562640500296208	0.05142526251926527	0.2843387643094208	-0.010023067421322513	0.005124660525580591	0.5171454012567714	0.10266618533866106	1.4761959979652604	0.38280936788485653	0.14255205411828276	1.7345367001610057	0.27914114188960176	0.14200232561323478	1.5787846926552394	0.25597355375074676	0.2580366601156785	1.395277472203927	0.41144154891785345	0.34403890924190605	1.1756800184733656	0.28692255585264653	0.23002412216384244	1.3408930427571117	0.21047569693155396	0.16802380007943077	1.4449461294115826	0.2285259881861509	0.1849315177993503	1.4670499402430621	0.17871394925161904	0.19587936522473437	1.421413760920074	0.16894455233476605	-0.051173608776296786	1.401189837093297	0.35543353151155466	-0.13258149272457204	1.1581595152608735	0.29810427116079546	-0.05972128387212201	1.0007787482994395	0.11501185541108637	0.01818497050350269	0.9388474428057806	0.052633750435878826	0.004818123580303606	0.926990749614938	0.017871835634414183	-0.03858444685942706	0.897910709427388	0.047996998705167424	
114	1.9	0.2160662457240919	0.8916725380116185	0.4025553814917963	0.19246029592900424	0.4997685875481852	0.46739236682504015	0.15289400235483575	0.05510840746436728	0.5099358890991817	0.17757612580293297	0.03219656869387342	0.2796342167900495	0.23492690799330646	-0.0001341654420272051	0.363388882902422	0.13882725412964683	0.020455975947901783	0.502312875691867	-0.006145536515764968	0.901027574418805	0.37459310412224484	-0.014554258441817078	0.5156637621741608	0.39541622934417575	-0.02230832530960503	0.0978925996328332	0.4460849070880644	-0.006172666089808678	0.02037983251088089	0.2623476674675009	-0.05563752911297502	0.05145705038604419	0.2844243477530275	-0.009831727895481663	0.0068875514322812815	0.515778931902179	0.10288313198878933	1.4777247421632904	0.3828701956525232	0.1444900792634108	1.7348220784292965	0.2794086522017357	0.14348447097454747	1.5804632846150228	0.2562477748954041	0.25914598616111434	1.396477726614625	0.40984690936858836	0.3417989322504122	1.177925165706901	0.282594677214516	0.2285888466072077	1.3442349180914401	0.21002732942930857	0.16494217780124265	1.452475205499596	0.23717076326423384	0.1862113043310984	1.4763162553221014	0.18371878846270018	0.19602643420592605	1.4281695114961204	0.17248058332759025	-0.050465883795772146	1.4016776403033528	0.3546324835001279	-0.13693780243774614	1.159608442023607	0.2908996789490509	-0.06718272622762674	0.9937450710963325	0.1246727483367334	0.010363581665014323	0.9298644991366486	0.06286549083560104	-0.005500894125950181	0.9157540625953332	0.028960811008046906	-0.044909583905323056	0.8870858843437558	0.05884525055757859	
